#!OML:ASF H:\ManfredETheater\Project 1\Capture day 1\Session 1\subject.ASF
:FULLY-SPECIFIED
:DEGREES
257
root 0.996612 17.6207 -16.586 -165.924 -1.07571 -182.121
lowerback 3.76314 -0.569085 -3.3299
upperback -3.87731 -0.978902 1.97555
thorax -6.06506 -0.332682 4.02705
lowerneck -15.7768 -1.28352 -1.61608
upperneck 8.81217 -1.71853 2.86539
head 5.25782 -0.676955 1.00865
rclavicle -1.64991e-014 2.62396e-014
rhumerus -36.9007 -4.34819 -83.5515
rradius 37.2145
rwrist 4.31761
rhand -20.2942 -8.4312
rfingers 7.12502
rthumb 6.05577 -38.3247
lclavicle -1.64991e-014 2.62396e-014
lhumerus -36.3602 -3.40268 93.9024
lradius 46.7701
lwrist -3.04271
lhand -17.1036 5.22522
lfingers 7.12502
lthumb 9.13539 35.0074
rfemur -19.3992 1.63742 21.4091
rtibia 34.8017
rfoot -23.9923 -12.8132
rtoes -18.7984
lfemur -21.9061 -3.8616 -23.6684
ltibia 39.6353
lfoot -27.5433 -1.25709
ltoes 5.93691
258
root 1.00533 17.6096 -16.6309 -165.758 -0.911483 -182.154
lowerback 3.7861 -0.570246 -3.38515
upperback -3.8791 -0.984501 1.97501
thorax -6.07915 -0.332492 4.05879
lowerneck -15.7688 -1.26583 -1.58017
upperneck 8.74083 -1.69738 2.84294
head 5.23309 -0.667245 0.997754
rclavicle 1.11319e-014 5.56597e-015
rhumerus -36.8709 -4.16167 -83.7157
rradius 37.4594
rwrist 4.27159
rhand -20.3976 -8.36496
rfingers 7.12502
rthumb 5.95592 -38.2612
lclavicle 1.11319e-014 5.56597e-015
lhumerus -36.4628 -3.53058 94.0242
lradius 46.8288
lwrist -3.07254
lhand -17.0448 5.15821
lfingers 7.12502
lthumb 9.19216 34.9379
rfemur -19.4809 1.62994 21.3891
rtibia 34.9099
rfoot -24.1665 -12.7701
rtoes -19.0804
lfemur -21.9306 -3.81717 -23.7101
ltibia 39.6802
lfoot -27.6997 -1.0942
ltoes 5.79805
259
root 1.01509 17.5989 -16.6772 -165.6 -0.755868 -182.184
lowerback 3.81847 -0.572899 -3.44327
upperback -3.87552 -0.99215 1.97336
thorax -6.09276 -0.333102 4.09124
lowerneck -15.7613 -1.24876 -1.53919
upperneck 8.66055 -1.67761 2.81912
head 5.20564 -0.658111 0.985486
rclavicle 6.95746e-016 1.03368e-014
rhumerus -36.8415 -3.98793 -83.8874
rradius 37.7091
rwrist 4.21547
rhand -20.5017 -8.31443
rfingers 7.12502
rthumb 5.85549 -38.2135
lclavicle 6.95746e-016 1.03368e-014
lhumerus -36.5636 -3.6506 94.1347
lradius 46.8734
lwrist -3.09962
lhand -16.9748 5.09295
lfingers 7.12502
lthumb 9.25967 34.8696
rfemur -19.5345 1.60855 21.3775
rtibia 34.9938
rfoot -24.331 -12.7231
rtoes -19.3848
lfemur -21.9472 -3.77825 -23.7463
ltibia 39.7344
lfoot -27.8403 -0.937372
ltoes 5.69967
260
root 1.02576 17.5889 -16.7251 -165.449 -0.614475 -182.207
lowerback 3.85644 -0.577078 -3.49586
upperback -3.86495 -1.00118 1.97158
thorax -6.10206 -0.334659 4.12055
lowerneck -15.7517 -1.23521 -1.50427
upperneck 8.56615 -1.66192 2.80505
head 5.17369 -0.650459 0.976908
rclavicle 4.47266e-015 -3.97569e-015
rhumerus -36.8112 -3.82572 -84.0663
rradius 37.9676
rwrist 4.13708
rhand -20.6063 -8.28311
rfingers 7.12502
rthumb 5.75443 -38.185
lclavicle 4.47266e-015 -3.97569e-015
lhumerus -36.6552 -3.76271 94.2357
lradius 46.8964
lwrist -3.12238
lhand -16.8948 5.0407
lfingers 7.12502
lthumb 9.33682 34.8139
rfemur -19.5591 1.5598 21.3793
rtibia 35.0492
rfoot -24.4868 -12.6609
rtoes -19.7178
lfemur -21.9569 -3.7491 -23.7702
ltibia 39.7972
lfoot -27.9691 -0.789262
ltoes 5.62911
261
root 1.03733 17.5796 -16.7747 -165.307 -0.484283 -182.224
lowerback 3.90079 -0.582386 -3.54389
upperback -3.85094 -1.01138 1.96928
thorax -6.11131 -0.336954 4.1469
lowerneck -15.7341 -1.22332 -1.47243
upperneck 8.46461 -1.64866 2.8002
head 5.13838 -0.643475 0.97154
rclavicle -2.48481e-015 -7.15625e-015
rhumerus -36.7918 -3.67383 -84.2543
rradius 38.2402
rwrist 4.03794
rhand -20.7105 -8.2813
rfingers 7.12502
rthumb 5.65385 -38.1859
lclavicle -2.48481e-015 -7.15625e-015
lhumerus -36.7442 -3.8646 94.3254
lradius 46.8937
lwrist -3.13688
lhand -16.8131 4.99419
lfingers 7.12502
lthumb 9.41573 34.7639
rfemur -19.5522 1.48271 21.3937
rtibia 35.0731
rfoot -24.6322 -12.5776
rtoes -20.0881
lfemur -21.9582 -3.72782 -23.7814
ltibia 39.8673
lfoot -28.0889 -0.649315
ltoes 5.57223
262
root 1.04948 17.5711 -16.8261 -165.17 -0.366158 -182.235
lowerback 3.94025 -0.588346 -3.58475
upperback -3.82733 -1.02135 1.96627
thorax -6.10763 -0.339764 4.16809
lowerneck -15.7133 -1.21557 -1.45178
upperneck 8.34595 -1.63962 2.80978
head 5.09756 -0.63788 0.972157
rclavicle -4.37326e-015 -7.95139e-015
rhumerus -36.7691 -3.53076 -84.4506
rradius 38.5232
rwrist 3.91072
rhand -20.8193 -8.30075
rfingers 7.12502
rthumb 5.54881 -38.2081
lclavicle -4.37326e-015 -7.95139e-015
lhumerus -36.8157 -3.95651 94.4047
lradius 46.8625
lwrist -3.15221
lhand -16.7319 4.95173
lfingers 7.12502
lthumb 9.49399 34.7179
rfemur -19.5182 1.36667 21.4165
rtibia 35.0653
rfoot -24.7709 -12.4605
rtoes -20.4887
lfemur -21.9541 -3.7166 -23.7823
ltibia 39.9435
lfoot -28.203 -0.513378
ltoes 5.50046
263
root 1.06188 17.5634 -16.8795 -165.035 -0.259757 -182.24
lowerback 3.9771 -0.596023 -3.6149
upperback -3.79891 -1.0326 1.96336
thorax -6.09728 -0.343863 4.18328
lowerneck -15.6967 -1.20873 -1.43488
upperneck 8.22372 -1.63131 2.82502
head 5.05641 -0.632279 0.97508
rclavicle 8.94531e-016 1.43125e-014
rhumerus -36.7497 -3.38801 -84.6575
rradius 38.8155
rwrist 3.75482
rhand -20.9293 -8.33568
rfingers 7.12502
rthumb 5.44263 -38.2458
lclavicle 8.94531e-016 1.43125e-014
lhumerus -36.8772 -4.03366 94.4727
lradius 46.8016
lwrist -3.16718
lhand -16.655 4.90679
lfingers 7.12502
lthumb 9.56824 34.6695
rfemur -19.4582 1.20747 21.448
rtibia 35.027
rfoot -24.9044 -12.3077
rtoes -20.9257
lfemur -21.9466 -3.71773 -23.7723
ltibia 40.0259
lfoot -28.3069 -0.372706
ltoes 5.38759
264
root 1.07423 17.5564 -16.935 -164.897 -0.165016 -182.244
lowerback 3.99888 -0.602769 -3.6341
upperback -3.76838 -1.04155 1.95866
thorax -6.07639 -0.347712 4.1898
lowerneck -15.6676 -1.20643 -1.42617
upperneck 8.09472 -1.62722 2.83982
head 5.01131 -0.629217 0.978837
rclavicle -7.35503e-015 1.43125e-014
rhumerus -36.7453 -3.24887 -84.8682
rradius 39.1208
rwrist 3.5698
rhand -21.0416 -8.37379
rfingers 7.12502
rthumb 5.33422 -38.2867
lclavicle -7.35503e-015 1.43125e-014
lhumerus -36.9326 -4.10206 94.5366
lradius 46.7102
lwrist -3.18427
lhand -16.574 4.87105
lfingers 7.12502
lthumb 9.64636 34.6302
rfemur -19.3773 0.999797 21.4806
rtibia 34.9612
rfoot -25.0333 -12.1231
rtoes -21.4186
lfemur -21.9394 -3.73094 -23.7595
ltibia 40.116
lfoot -28.4026 -0.218842
ltoes 5.19496
265
root 1.0862 17.55 -16.9924 -164.754 -0.0804438 -182.245
lowerback 4.00971 -0.609883 -3.63935
upperback -3.73594 -1.04978 1.9535
thorax -6.04737 -0.352118 4.18756
lowerneck -15.6497 -1.20502 -1.42199
upperneck 7.97011 -1.62286 2.85093
head 4.96942 -0.62631 0.982157
rclavicle 1.28216e-014 -2.62396e-014
rhumerus -36.7498 -3.09655 -85.0927
rradius 39.4377
rwrist 3.31784
rhand -21.1818 -8.39601
rfingers 7.12502
rthumb 5.19885 -38.3122
lclavicle 1.28216e-014 -2.62396e-014
lhumerus -36.9767 -4.15641 94.593
lradius 46.5903
lwrist -3.20851
lhand -16.4891 4.83857
lfingers 7.12502
lthumb 9.72827 34.5939
rfemur -19.2813 0.745099 21.5142
rtibia 34.8713
rfoot -25.1633 -11.9081
rtoes -21.9592
lfemur -21.9382 -3.75727 -23.7438
ltibia 40.2164
lfoot -28.4875 -0.0432187
ltoes 4.90281
266
root 1.09773 17.544 -17.0517 -164.602 -0.00384396 -182.237
lowerback 4.00597 -0.61406 -3.62222
upperback -3.70853 -1.05263 1.95013
thorax -6.01606 -0.355024 4.17384
lowerneck -15.618 -1.20685 -1.42434
upperneck 7.848 -1.62105 2.85479
head 4.92614 -0.625587 0.984064
rclavicle -2.98177e-015 7.95139e-015
rhumerus -36.7785 -2.9308 -85.3251
rradius 39.7671
rwrist 3.00641
rhand -21.3315 -8.40054
rfingers 7.12502
rthumb 5.05431 -38.3203
lclavicle -2.98177e-015 7.95139e-015
lhumerus -37.0214 -4.20281 94.6479
lradius 46.4406
lwrist -3.24157
lhand -16.4037 4.79901
lfingers 7.12502
lthumb 9.81065 34.5505
rfemur -19.1763 0.457794 21.5564
rtibia 34.7621
rfoot -25.2954 -11.6769
rtoes -22.5489
lfemur -21.9483 -3.79418 -23.7185
ltibia 40.3314
lfoot -28.5578 0.163968
ltoes 4.49801
267
root 1.10852 17.5381 -17.1129 -164.44 0.0637318 -182.224
lowerback 3.98975 -0.615861 -3.58476
upperback -3.68486 -1.05098 1.94679
thorax -5.98221 -0.356774 4.14806
lowerneck -15.5916 -1.2101 -1.43452
upperneck 7.73498 -1.61892 2.85042
head 4.88654 -0.625518 0.984654
rclavicle -7.95139e-016 8.74653e-015
rhumerus -36.8191 -2.75011 -85.5661
rradius 40.1009
rwrist 2.64239
rhand -21.4828 -8.37922
rfingers 7.12502
rthumb 4.90821 -38.3024
lclavicle -7.95139e-016 8.74653e-015
lhumerus -37.0627 -4.24237 94.7015
lradius 46.2685
lwrist -3.28592
lhand -16.3152 4.75274
lfingers 7.12502
lthumb 9.89607 34.5002
rfemur -19.0648 0.139357 21.5988
rtibia 34.6379
rfoot -25.4395 -11.4332
rtoes -23.1711
lfemur -21.9722 -3.84266 -23.6926
ltibia 40.4651
lfoot -28.6116 0.403576
ltoes 4.00166
